<svg xmlns="http://www.w3.org/2000/svg" version="1.1" width="385" height="448"><rect id="backgroundrect" width="100%" height="100%" x="0" y="0" fill="none" stroke="none"/>
<title/>


<g class="currentLayer" style=""><title>Layer 1</title><g id="icomoon-ignore">
</g><path fill="#ffffff" d="M224.25 342.25v41.75h-62l-39.75-63-6-10.5c-1.5-1.75-2.25-3.5-2.75-5.25h-0.75c-0.5 1.75-1.5 3.5-2.25 5.25-1.5 3-3.75 7-6.25 11l-38.75 62.5h-64.5v-41.75h32l49.25-72.75-46.25-68h-34.25v-42h69l34.75 57c2.25 3.5 4 7.25 5.75 10.5 1.5 1.75 2.25 3.5 2.75 5.25h0.75c0.5-1.75 1.5-3.5 2.75-5.25l6.25-10.5 35-57h64.25v42h-31.25l-46 66.75 51 74h27.25zM383.5 172.5v51.5h-128.5l-0.75-6.75c-0.5-3.5-1-8.25-1-11.5 0-68.25 87.5-74 87.5-110.25 0-13-11.75-21.75-25-21.75-9.5 0-18 4.5-24.25 9.75-3.25 2.75-6.25 6.25-9 9.5l-26.25-23c4.5-6.25 9.5-11.5 15.75-16.5 10.5-8.25 25.75-16.25 47-16.25 36.25 0 61.5 21.25 61.5 54.5 0 60-83 65-86.5 100.75h58v-20h31.5z" id="svg_1" class="selected" fill-opacity="1"/></g></svg>